<svg width="38" height="38" viewBox="0 0 38 38" fill="none" xmlns="http://www.w3.org/2000/svg">
<path d="M12.8129 25.7918C10.8971 25.0502 9.32909 23.617 8.41857 21.7754C7.50804 19.9338 7.32122 17.8178 7.895 15.8451C8.46878 13.8725 9.76145 12.1868 11.5177 11.1209C13.2739 10.055 15.366 9.68647 17.3807 10.0881" stroke="white" stroke-width="1.5" stroke-linecap="round" stroke-linejoin="round"/>
<path d="M12.7522 32.5913C8.97622 31.8032 5.65841 29.5692 3.50805 26.3669C1.35769 23.1645 0.545441 19.248 1.24494 15.4547C1.94445 11.6613 4.10019 8.29213 7.25131 6.06741C10.4024 3.84269 14.2988 2.93899 18.1075 3.54952" stroke="white" stroke-width="1.5" stroke-linecap="round" stroke-linejoin="round"/>
<path d="M15.1592 18.499L21.7226 11.9355" stroke="white" stroke-width="1.5" stroke-linecap="round" stroke-linejoin="round"/>
<path d="M21.7236 11.9344L22.6183 6.02773L27.7342 1L28.5249 5.13307L32.658 5.92377L27.6303 11.0397L21.7236 11.9344Z" stroke="white" stroke-width="1.5" stroke-linecap="round" stroke-linejoin="round"/>
<path d="M26.9731 36.4403C32.1925 36.4403 36.4237 32.2091 36.4237 26.9897C36.4237 21.7703 32.1925 17.5391 26.9731 17.5391C21.7536 17.5391 17.5225 21.7703 17.5225 26.9897C17.5225 32.2091 21.7536 36.4403 26.9731 36.4403Z" stroke="white" stroke-width="1.5" stroke-linecap="round" stroke-linejoin="round"/>
<path d="M31.1807 24.2402L26.605 30.3422C26.5033 30.4775 26.3737 30.5894 26.225 30.6703C26.0763 30.7513 25.9119 30.7993 25.743 30.8113C25.5742 30.8232 25.4047 30.7988 25.2461 30.7396C25.0874 30.6804 24.9434 30.5878 24.8236 30.4682L22.4609 28.1055" stroke="white" stroke-width="1.5" stroke-linecap="round" stroke-linejoin="round"/>
</svg>
