<svg width="38" height="38" viewBox="0 0 38 38" fill="none" xmlns="http://www.w3.org/2000/svg">
<g clip-path="url(#clip0)">
<path d="M4.18846 23.5184L18.4369 37.7669C18.5097 37.8397 18.5984 37.8983 18.695 37.9394C18.8881 38.0202 19.1066 38.0202 19.2998 37.9394C19.398 37.8999 19.485 37.8413 19.5579 37.7669L33.8095 23.5184C34.1182 23.2097 34.1182 22.7078 33.8095 22.399C33.5007 22.0903 32.9988 22.0903 32.69 22.399L19.7906 35.2969L19.7906 0.791271C19.7906 0.354275 19.436 -0.000392914 18.999 -0.000392914C18.562 -0.000392914 18.2073 0.354275 18.2073 0.791271L18.2073 35.2969L5.30946 22.399C5.15429 22.2439 4.95162 22.1663 4.74896 22.1663C4.54629 22.1663 4.34362 22.2439 4.18846 22.3974C3.87971 22.7078 3.87971 23.2081 4.18846 23.5184Z" fill="white"/>
</g>
<defs>
<clipPath id="clip0">
<rect width="38" height="38" fill="white" transform="translate(38 38) rotate(180)"/>
</clipPath>
</defs>
</svg>
