<svg width="19" height="19" viewBox="0 0 19 19" fill="none" xmlns="http://www.w3.org/2000/svg">
<g clip-path="url(#clip0)">
<path d="M11.8903 16.7657L18.6396 10.0164C18.6741 9.98194 18.7018 9.93994 18.7213 9.89419C18.7596 9.80269 18.7596 9.69919 18.7213 9.60769C18.7026 9.56119 18.6748 9.51994 18.6396 9.48544L11.8903 2.73469C11.7441 2.58844 11.5063 2.58844 11.3601 2.73469C11.2138 2.88094 11.2138 3.11869 11.3601 3.26494L17.4696 9.37519H1.12481C0.917812 9.37519 0.749813 9.54319 0.749813 9.75019C0.749813 9.95719 0.917812 10.1252 1.12481 10.1252H17.4696L11.3601 16.2347C11.2866 16.3082 11.2498 16.4042 11.2498 16.5002C11.2498 16.5962 11.2866 16.6922 11.3593 16.7657C11.5063 16.9119 11.7433 16.9119 11.8903 16.7657Z" fill="white"/>
</g>
<defs>
<clipPath id="clip0">
<rect width="18" height="18" fill="white" transform="translate(18.75 0.75) rotate(90)"/>
</clipPath>
</defs>
</svg>
