<svg width="18" height="18" viewBox="0 0 18 18" fill="none" xmlns="http://www.w3.org/2000/svg">
<g clip-path="url(#clip0)">
<path d="M11.1403 16.0157L17.8896 9.26644C17.9241 9.23194 17.9518 9.18994 17.9713 9.14419C18.0096 9.05269 18.0096 8.94919 17.9713 8.85769C17.9526 8.81119 17.9248 8.76994 17.8896 8.73544L11.1403 1.98469C10.9941 1.83844 10.7563 1.83844 10.6101 1.98469C10.4638 2.13094 10.4638 2.36869 10.6101 2.51494L16.7196 8.62519H0.374813C0.167812 8.62519 -0.00018692 8.79319 -0.00018692 9.00019C-0.00018692 9.20719 0.167812 9.37519 0.374813 9.37519H16.7196L10.6101 15.4847C10.5366 15.5582 10.4998 15.6542 10.4998 15.7502C10.4998 15.8462 10.5366 15.9422 10.6093 16.0157C10.7563 16.1619 10.9933 16.1619 11.1403 16.0157Z" fill="black"/>
</g>
<defs>
<clipPath id="clip0">
<rect width="18" height="18" fill="white" transform="translate(18) rotate(90)"/>
</clipPath>
</defs>
</svg>
