<svg width="26" height="26" viewBox="0 0 26 26" fill="none" xmlns="http://www.w3.org/2000/svg">
<g opacity="0.23" clip-path="url(#clip0)">
<path d="M25.6835 24.1521L19.1456 17.6088C20.8962 15.465 21.756 12.7305 21.5473 9.97059C21.3386 7.21073 20.0774 4.63659 18.0244 2.7804C15.9713 0.924217 13.2835 -0.0720618 10.5166 -0.00244169C7.74977 0.0671785 5.11546 1.19737 3.15837 3.15446C1.20128 5.11155 0.0710847 7.74586 0.00146456 10.5127C-0.0681556 13.2796 0.928123 15.9674 2.78431 18.0205C4.64049 20.0735 7.21463 21.3347 9.97449 21.5434C12.7344 21.7521 15.4689 20.8923 17.6127 19.1417L24.156 25.6796C24.3632 25.8571 24.6298 25.9498 24.9025 25.9393C25.1751 25.9288 25.4338 25.8157 25.6267 25.6228C25.8196 25.4299 25.9327 25.1712 25.9432 24.8986C25.9537 24.6259 25.861 24.3593 25.6835 24.1521ZM2.16976 10.7892C2.16869 9.08342 2.67353 7.41566 3.62042 5.99685C4.56731 4.57803 5.91372 3.47192 7.48933 2.81841C9.06494 2.1649 10.799 1.99335 12.4721 2.32547C14.1452 2.65759 15.6823 3.47846 16.8888 4.68424C18.0953 5.89002 18.9172 7.42654 19.2503 9.09945C19.5835 10.7724 19.413 12.5065 18.7605 14.0825C18.108 15.6585 17.0027 17.0056 15.5845 17.9534C14.1663 18.9012 12.4989 19.4071 10.7931 19.4071C8.50786 19.4042 6.31697 18.4955 4.70055 16.8801C3.08414 15.2647 2.17406 13.0744 2.16976 10.7892Z" fill="white"/>
</g>
<defs>
<clipPath id="clip0">
<rect width="26" height="26" fill="white"/>
</clipPath>
</defs>
</svg>
