<svg width="22" height="22" viewBox="0 0 22 22" fill="none" xmlns="http://www.w3.org/2000/svg">
<path d="M12.2971 11.0001L21.7296 1.56297C21.9004 1.39122 21.9962 1.15889 21.9962 0.916716C21.9962 0.674546 21.9004 0.442215 21.7296 0.270466C21.5579 0.0997362 21.3256 0.00390625 21.0834 0.00390625C20.8412 0.00390625 20.6089 0.0997362 20.4371 0.270466L11 9.70297L1.56297 0.270466C1.39122 0.0997362 1.15889 0.00390625 0.916716 0.00390625C0.674546 0.00390625 0.442215 0.0997362 0.270466 0.270466C0.0997362 0.442215 0.00390625 0.674546 0.00390625 0.916716C0.00390625 1.15889 0.0997362 1.39122 0.270466 1.56297L9.70297 11.0001L0.270466 20.4371C0.0997362 20.6089 0.00390625 20.8412 0.00390625 21.0834C0.00390625 21.3256 0.0997362 21.5579 0.270466 21.7296C0.442215 21.9004 0.674546 21.9962 0.916716 21.9962C1.15889 21.9962 1.39122 21.9004 1.56297 21.7296L11 12.2971L20.4371 21.7296C20.6125 21.8798 20.8381 21.9583 21.0688 21.9494C21.2995 21.9405 21.5183 21.8448 21.6816 21.6816C21.8448 21.5183 21.9405 21.2995 21.9494 21.0688C21.9583 20.8381 21.8798 20.6125 21.7296 20.4371L12.2971 11.0001Z" fill="white"/>
</svg>
