<svg width="20" height="16" viewBox="0 0 20 16" fill="none" xmlns="http://www.w3.org/2000/svg">
<path d="M18.9713 7.85769L19.1568 7.78289C19.1278 7.71105 19.0848 7.64692 19.0303 7.59335L12.2817 0.843282L12.2817 0.843266C12.0574 0.618911 11.693 0.618911 11.4686 0.843266C11.2443 1.06762 11.2443 1.43199 11.4686 1.65635C11.4686 1.65635 11.4686 1.65636 11.4686 1.65636L17.2368 7.42519L1.37481 7.42519C1.05736 7.42519 0.799812 7.68273 0.799812 8.00019C0.799812 8.31764 1.05736 8.57519 1.37481 8.57519H17.2367L11.4686 14.3433C11.3563 14.4556 11.2998 14.603 11.2998 14.7502C11.2998 14.8972 11.3562 15.0443 11.4672 15.1564L11.4683 15.1575C11.6933 15.3813 12.0564 15.3813 12.2814 15.1575L12.2817 15.1571L19.031 8.40786C19.0847 8.35411 19.1264 8.29032 19.1553 8.22261L19.1553 8.22261L19.1558 8.22132C19.2147 8.08047 19.2147 7.9214 19.1558 7.78055L18.9713 7.85769ZM18.9713 7.85769C19.0096 7.94919 19.0096 8.05269 18.9713 8.14419L18.8896 7.73544C18.9248 7.76994 18.9526 7.81119 18.9713 7.85769Z" fill="#4799D5" stroke="#4799D5" stroke-width="0.4"/>
</svg>
